# xmcd
#
# Track frame offsets:
#  150
#  5898
#  20788
#  31508
#  45826
#  61378
#  85673
#  103982
#  127840
#  142023
#  155561
#  177349
#  188300
#
# Disc length: 2753 seconds
#
# Revision: 0
# Processed by: cddbd v1.5.1PL2 Copyright (c) Steve Scherf et al.
# Submitted via: Collectorz.com Music Collector 6.9
#
DISCID=9f0abf0d
DTITLE=John Mayall - Bare Wires
DYEAR=1968
DGENRE=Blues-Rock - British Blues
TTITLE0=Bare Wires
TTITLE1=Where did I belong
TTITLE2=I started walking
TTITLE3=Open up a new door
TTITLE4=Fire
TTITLE5=I know now
TTITLE6=Look in the mirror
TTITLE7=I'm a stranger
TTITLE8=No reply
TTITLE9=Hartley quits
TTITLE10=Killing time
TTITLE11=She's too young
TTITLE12=Sandy
EXTD=
EXTT0=
EXTT1=
EXTT2=
EXTT3=
EXTT4=
EXTT5=
EXTT6=
EXTT7=
EXTT8=
EXTT9=
EXTT10=
EXTT11=
EXTT12=
PLAYORDER=
